<?xml version="1.0" encoding="UTF-8"?><svg id="a" xmlns="http://www.w3.org/2000/svg" viewBox="0 0 1680 750"><g><path d="M627.1942,485.5867c-1.3175,2.3421-3.2208,4.3923-5.1978,5.6361-2.4886,1.6109-5.7831,2.3431-9.0775,2.3431-4.0994,0-7.4667-1.0251-10.3951-3.953-2.9284-2.9289-4.5388-7.1748-4.5388-11.7868,0-4.7584,1.6836-9.3704,4.9049-12.6644,2.5623-2.5628,5.9295-4.1727,10.3218-4.1727,4.9049,0,8.0529,2.1225,9.883,4.0262,3.953,4.0994,4.3191,9.8098,4.3191,13.0305v.8787h-22.1081c.1464,2.1957,1.0978,4.6852,2.635,6.2229,1.6841,1.6831,3.7338,1.976,5.4907,1.976,1.9765,0,3.4409-.4393,4.9049-1.5367,1.2448-.9519,2.1962-2.1967,2.8552-3.3682l6.0027,3.3682Zm-7.101-12.519c-.2929-1.6831-1.0978-3.1476-2.1962-4.1727-.9514-.8787-2.4891-1.7573-4.8317-1.7573-2.4891,0-4.0994,1.0251-5.0513,1.977-1.0246,.9519-1.8301,2.4153-2.1962,3.953h14.2753Z" style="fill:#150071;"/><path d="M637.8094,473.2874h17.5698v7.4676h-17.5698v-7.4676Z" style="fill:#150071;"/><path d="M687.4445,471.2382c-3.2945-3.2218-6.5153-3.8075-8.7114-3.8075-3.3677,0-5.4907,1.3912-6.8082,2.7092-1.318,1.318-2.6355,3.6601-2.6355,7.1006,0,3.5879,1.3907,6.0032,2.7815,7.3944,1.6109,1.5367,3.8803,2.4886,6.5158,2.4886,2.9279,0,6.3688-1.1715,8.8579-3.953v7.9792c-1.7568,1.0983-4.612,2.4163-9.3704,2.4163-5.1245,0-8.7847-1.4644-11.713-4.5388-2.1962-2.2699-4.3923-5.93-4.3923-11.5671,0-5.7835,2.4158-9.6633,4.6852-11.9322,2.4158-2.4163,6.2956-4.5388,12.3716-4.5388,2.3426,0,5.1245,.3661,8.419,2.1957v8.0534Z" style="fill:#150071;"/><path d="M725.6599,477.2404c0,9.4437-7.1743,16.3255-16.4715,16.3255s-16.4715-6.8819-16.4715-16.3255c0-9.5169,7.1743-16.2513,16.4715-16.2513s16.4715,6.7345,16.4715,16.2513Zm-7.3207,.0732c0-7.0273-4.612-9.883-9.1508-9.883s-9.1508,2.8556-9.1508,9.883c0,5.93,3.5137,9.8098,9.1508,9.8098s9.1508-3.8798,9.1508-9.8098Z" style="fill:#150071;"/><path d="M733.1285,461.7945h7.1743v2.8547c2.4158-2.9279,5.271-3.6601,7.6136-3.6601,3.2208,0,6.2224,1.5367,7.9792,4.5388,2.5623-3.6601,6.4425-4.5388,9.1508-4.5388,3.7338,0,7.0278,1.7563,8.7852,4.8317,.5853,1.0251,1.6104,3.294,1.6104,7.7596v19.0338h-7.1743v-16.9835c0-3.4414-.3661-4.8317-.659-5.4907-.4388-1.1715-1.5372-2.7092-4.0994-2.7092-1.7568,0-3.2945,.9519-4.2459,2.2699-1.2448,1.7573-1.3907,4.3923-1.3907,7.0273v15.8862h-7.1743v-16.9835c0-3.4414-.3661-4.8317-.659-5.4907-.4393-1.1715-1.5372-2.7092-4.0994-2.7092-1.7573,0-3.2945,.9519-4.2464,2.2699-1.2443,1.7573-1.3907,4.3923-1.3907,7.0273v15.8862h-7.1743v-30.8195Z" style="fill:#150071;"/><path d="M784.5214,461.7945h7.1743v2.8547c2.4158-2.9279,5.271-3.6601,7.6136-3.6601,3.2208,0,6.2224,1.5367,7.9792,4.5388,2.5623-3.6601,6.4425-4.5388,9.1508-4.5388,3.7338,0,7.0278,1.7563,8.7852,4.8317,.5853,1.0251,1.6104,3.294,1.6104,7.7596v19.0338h-7.1743v-16.9835c0-3.4414-.3661-4.8317-.659-5.4907-.4388-1.1715-1.5372-2.7092-4.0994-2.7092-1.7568,0-3.2945,.9519-4.2459,2.2699-1.2448,1.7573-1.3907,4.3923-1.3907,7.0273v15.8862h-7.1743v-16.9835c0-3.4414-.3661-4.8317-.659-5.4907-.4393-1.1715-1.5372-2.7092-4.0994-2.7092-1.7573,0-3.2945,.9519-4.2464,2.2699-1.2443,1.7573-1.3907,4.3923-1.3907,7.0273v15.8862h-7.1743v-30.8195Z" style="fill:#150071;"/><path d="M863.5136,485.5867c-1.3175,2.3421-3.2208,4.3923-5.1973,5.6361-2.4891,1.6109-5.7835,2.3431-9.078,2.3431-4.0994,0-7.4667-1.0251-10.3951-3.953-2.9284-2.9289-4.5388-7.1748-4.5388-11.7868,0-4.7584,1.6836-9.3704,4.9049-12.6644,2.5623-2.5628,5.9295-4.1727,10.3218-4.1727,4.9049,0,8.0529,2.1225,9.883,4.0262,3.953,4.0994,4.3191,9.8098,4.3191,13.0305v.8787h-22.1081c.1464,2.1957,1.0978,4.6852,2.6355,6.2229,1.6836,1.6831,3.7333,1.976,5.4902,1.976,1.9765,0,3.4409-.4393,4.9049-1.5367,1.2448-.9519,2.1962-2.1967,2.8552-3.3682l6.0027,3.3682Zm-7.101-12.519c-.2929-1.6831-1.0978-3.1476-2.1962-4.1727-.9514-.8787-2.4891-1.7573-4.8317-1.7573-2.4891,0-4.0994,1.0251-5.0513,1.977-1.0246,.9519-1.8301,2.4153-2.1962,3.953h14.2753Z" style="fill:#150071;"/><path d="M871.2014,461.7945h7.1743v2.7815c.8054-.9519,1.9765-1.977,3.0016-2.5618,1.3907-.8054,2.7819-1.0251,4.3923-1.0251,1.7568,0,3.6601,.2929,5.6366,1.4635l-2.9279,6.5158c-1.6109-1.0251-2.9284-1.0983-3.6606-1.0983-1.5372,0-3.0743,.2197-4.4656,1.6841-1.9765,2.1225-1.9765,5.0513-1.9765,7.1006v15.9594h-7.1743v-30.8195Z" style="fill:#150071;"/><path d="M917.1027,471.2382c-3.2945-3.2218-6.5153-3.8075-8.7114-3.8075-3.3677,0-5.4907,1.3912-6.8087,2.7092-1.3175,1.318-2.635,3.6601-2.635,7.1006,0,3.5879,1.3907,6.0032,2.7815,7.3944,1.6109,1.5367,3.8803,2.4886,6.5158,2.4886,2.9279,0,6.3688-1.1715,8.8579-3.953v7.9792c-1.7568,1.0983-4.612,2.4163-9.3704,2.4163-5.1245,0-8.7847-1.4644-11.713-4.5388-2.1962-2.2699-4.3923-5.93-4.3923-11.5671,0-5.7835,2.4158-9.6633,4.6852-11.9322,2.4158-2.4163,6.2956-4.5388,12.3716-4.5388,2.3426,0,5.1245,.3661,8.419,2.1957v8.0534Z" style="fill:#150071;"/><path d="M951.5843,485.5867c-1.3175,2.3421-3.2208,4.3923-5.1978,5.6361-2.4886,1.6109-5.7831,2.3431-9.0775,2.3431-4.0994,0-7.4667-1.0251-10.3951-3.953-2.9284-2.9289-4.5388-7.1748-4.5388-11.7868,0-4.7584,1.6836-9.3704,4.9049-12.6644,2.5623-2.5628,5.9295-4.1727,10.3218-4.1727,4.9049,0,8.0529,2.1225,9.883,4.0262,3.953,4.0994,4.3191,9.8098,4.3191,13.0305v.8787h-22.1081c.1464,2.1957,1.0978,4.6852,2.635,6.2229,1.6841,1.6831,3.7338,1.976,5.4907,1.976,1.9765,0,3.4409-.4393,4.9049-1.5367,1.2448-.9519,2.1962-2.1967,2.8552-3.3682l6.0027,3.3682Zm-7.101-12.519c-.2929-1.6831-1.0978-3.1476-2.1962-4.1727-.9514-.8787-2.4891-1.7573-4.8317-1.7573-2.4891,0-4.0994,1.0251-5.0513,1.977-1.0246,.9519-1.8301,2.4153-2.1962,3.953h14.2753Z" style="fill:#150071;"/><path d="M983.7233,468.3825v24.2315h-7.1743v-24.2315h-3.0016v-6.588h3.0016v-11.2742h7.1743v11.2742h5.4907v6.588h-5.4907Z" style="fill:#150071;"/><path d="M1021.6439,485.5867c-1.3175,2.3421-3.2208,4.3923-5.1978,5.6361-2.4886,1.6109-5.7831,2.3431-9.0775,2.3431-4.0994,0-7.4667-1.0251-10.3951-3.953-2.9284-2.9289-4.5388-7.1748-4.5388-11.7868,0-4.7584,1.6836-9.3704,4.9049-12.6644,2.5623-2.5628,5.9295-4.1727,10.3218-4.1727,4.9049,0,8.0529,2.1225,9.883,4.0262,3.953,4.0994,4.3191,9.8098,4.3191,13.0305v.8787h-22.1081c.1464,2.1957,1.0978,4.6852,2.635,6.2229,1.6841,1.6831,3.7338,1.976,5.4907,1.976,1.9765,0,3.4409-.4393,4.9049-1.5367,1.2448-.9519,2.1962-2.1967,2.8552-3.3682l6.0027,3.3682Zm-7.101-12.519c-.2929-1.6831-1.0978-3.1476-2.1962-4.1727-.9514-.8787-2.4891-1.7573-4.8317-1.7573-2.4891,0-4.0994,1.0251-5.0513,1.977-1.0246,.9519-1.8301,2.4153-2.1962,3.953h14.2753Z" style="fill:#150071;"/><path d="M1053.1976,471.2382c-3.2945-3.2218-6.5153-3.8075-8.7114-3.8075-3.3677,0-5.4907,1.3912-6.8087,2.7092-1.3175,1.318-2.635,3.6601-2.635,7.1006,0,3.5879,1.3907,6.0032,2.7815,7.3944,1.6109,1.5367,3.8803,2.4886,6.5158,2.4886,2.9279,0,6.3688-1.1715,8.8579-3.953v7.9792c-1.7568,1.0983-4.612,2.4163-9.3704,2.4163-5.1245,0-8.7847-1.4644-11.713-4.5388-2.1962-2.2699-4.3923-5.93-4.3923-11.5671,0-5.7835,2.4158-9.6633,4.6852-11.9322,2.4158-2.4163,6.2956-4.5388,12.3716-4.5388,2.3426,0,5.1245,.3661,8.419,2.1957v8.0534Z" style="fill:#150071;"/><path d="M1060.0799,439.2461h7.1743v25.1834c3.0748-3.1476,6.4421-3.4404,8.2721-3.4404,5.6371,0,8.1994,2.9279,9.078,4.1727,1.9033,2.7815,1.9765,6.3683,1.9765,8.565v18.8873h-7.1743v-18.2283c0-1.8305,0-3.8066-1.3912-5.3442-.805-.8787-2.1962-1.6109-4.0262-1.6109-2.4158,0-4.3191,1.1715-5.271,2.5628-1.0246,1.4644-1.4639,3.8066-1.4639,7.7596v14.8611h-7.1743v-53.3679Z" style="fill:#150071;"/><path d="M1095.5862,461.7945h7.1743v2.8547c3.0748-3.4404,6.5885-3.6601,8.3453-3.6601,5.7103,0,8.1262,2.8547,9.078,4.1727,1.1711,1.6841,1.9033,3.8066,1.9033,8.565v18.8873h-7.1743v-17.13c0-7.8338-2.9284-8.0534-5.6371-8.0534-3.2208,0-6.5153,.4393-6.5153,10.3955v14.7879h-7.1743v-30.8195Z" style="fill:#150071;"/><path d="M1134.7525,444.4439c2.635,0,4.612,1.977,4.612,4.612s-1.977,4.612-4.612,4.612-4.6125-1.976-4.6125-4.612,1.977-4.612,4.6125-4.612Zm3.5869,17.3506v30.8195h-7.1743v-30.8195h7.1743Z" style="fill:#150071;"/><path d="M1171.2824,471.2382c-3.2945-3.2218-6.5153-3.8075-8.7114-3.8075-3.3677,0-5.4907,1.3912-6.8082,2.7092-1.318,1.318-2.6355,3.6601-2.6355,7.1006,0,3.5879,1.3907,6.0032,2.7815,7.3944,1.6109,1.5367,3.8803,2.4886,6.5158,2.4886,2.9279,0,6.3688-1.1715,8.8579-3.953v7.9792c-1.7568,1.0983-4.612,2.4163-9.3704,2.4163-5.1245,0-8.7847-1.4644-11.713-4.5388-2.1962-2.2699-4.3923-5.93-4.3923-11.5671,0-5.7835,2.4158-9.6633,4.6852-11.9322,2.4158-2.4163,6.2956-4.5388,12.3716-4.5388,2.3426,0,5.1245,.3661,8.419,2.1957v8.0534Z" style="fill:#150071;"/><path d="M1181.7521,444.4439c2.635,0,4.612,1.977,4.612,4.612s-1.977,4.612-4.612,4.612-4.6125-1.976-4.6125-4.612,1.977-4.612,4.6125-4.612Zm3.5869,17.3506v30.8195h-7.1743v-30.8195h7.1743Z" style="fill:#150071;"/><path d="M1216.964,461.7945h7.1743v30.8195h-7.1743v-3.2208c-3.1476,3.6601-7.0278,4.1727-9.224,4.1727-9.5169,0-14.9338-7.907-14.9338-16.3988,0-10.0294,6.8814-16.1781,15.007-16.1781,2.2694,0,6.2229,.5858,9.1508,4.3923v-3.5869Zm-16.8371,15.5191c0,5.3442,3.3672,9.8098,8.565,9.8098,4.5388,0,8.7114-3.294,8.7114-9.7365,0-6.7345-4.1727-9.9562-8.7114-9.9562-5.1978,0-8.565,4.3923-8.565,9.883Z" style="fill:#150071;"/><path d="M1233.1445,461.7945h7.1743v2.8547c3.0748-3.4404,6.5885-3.6601,8.3453-3.6601,5.7103,0,8.1262,2.8547,9.078,4.1727,1.1711,1.6841,1.9033,3.8066,1.9033,8.565v18.8873h-7.1743v-17.13c0-7.8338-2.9284-8.0534-5.6371-8.0534-3.2208,0-6.5153,.4393-6.5153,10.3955v14.7879h-7.1743v-30.8195Z" style="fill:#150071;"/><path d="M1282.1933,469.9202c-.7317-1.1715-2.1229-2.636-4.3923-2.636-1.0246,0-1.7568,.3661-2.1962,.8054-.3661,.3661-.659,.9519-.659,1.6109,0,.8054,.3661,1.318,1.0251,1.7573,.4393,.2919,.8787,.4384,2.4158,1.2438l3.6601,1.8305c1.6109,.8054,3.148,1.6109,4.3196,2.8547,1.6836,1.6841,2.2694,3.5869,2.2694,5.7103,0,2.7815-1.0251,5.1978-2.7087,7.0283-2.4158,2.635-5.4174,3.4404-8.6387,3.4404-1.9765,0-4.4656-.2929-6.6617-1.977-1.7568-1.318-3.2208-3.4404-3.953-5.6371l5.8563-2.7815c.3661,1.0251,1.0251,2.3431,1.6841,2.9279,.4393,.4393,1.4639,1.1715,3.1476,1.1715,1.0983,0,2.2694-.3661,2.9284-1.0251,.5858-.5858,1.0251-1.5367,1.0251-2.4153s-.2929-1.6109-.9519-2.3431c-.8787-.8777-1.9033-1.3902-3.0748-1.9028l-2.635-1.2448c-1.3912-.659-3.0748-1.4644-4.2464-2.635-1.6104-1.5377-2.1962-3.2218-2.1962-5.1978,0-2.4895,.9519-4.9049,2.5623-6.589,1.3912-1.4644,3.7338-2.9279,7.5404-2.9279,2.1962,0,3.953,.4393,5.7103,1.6099,1.0246,.659,2.4153,1.8305,3.5137,3.8075l-5.3442,3.5137Z" style="fill:#150071;"/></g><path d="M653.6579,188.3968l-124.2916,124.2916c-7.7691,7.7691-19.7372,9.3142-29.3016,3.9068-.1073-.0607-.2148-.121-.3225-.1811-7.6405-4.2632-12.3027-12.3932-12.3027-21.1426v-104.07c0-6.723,9.5282-7.9253,11.2208-1.4686l22.3079,84.1995,125.2084-94.1294c5.6995-4.2744,12.5123,3.6064,7.4813,8.5939Z" style="fill:#cc0937;"/><path d="M408.6936,342.0203c-.0567,.1003-.1132,.2008-.1694,.3015-4.2647,7.6351-12.3922,12.2929-21.1376,12.2929h-104.1023c-6.7236,0-7.9248-9.5288-1.4686-11.2203l84.1995-22.3079-94.13-125.2095c-4.2744-5.655,3.6069-12.4677,8.5944-7.4802l124.3121,124.3121c7.772,7.772,9.3114,19.7434,3.9019,29.3115Z" style="fill:#150071;"/><path d="M434.4273,433.5277c7.6466,4.2621,12.3142,12.3956,12.3142,21.1498v104.0918c0,6.7236-9.5282,7.9704-11.2643,1.4697l-22.2633-84.2001-125.2541,94.1294c-5.655,4.2744-12.4677-3.5624-7.4802-8.5933l124.3218-124.3218c7.7656-7.7656,19.7282-9.3156,29.2901-3.9139,.1117,.0631,.2237,.1259,.3358,.1884Z" style="fill:#150071;"/><path d="M467.0905,111.1426v175.742c0,10.9452-7.2992,20.5523-17.8529,23.4533-.1357,.0373-.2712,.075-.4066,.1132-8.4604,2.384-17.5375-.0043-23.7528-6.2197l-73.5787-73.5787c-4.7201-4.7647,1.1132-12.3785,6.9019-8.9945l75.2942,43.7701,21.997-155.0867c1.024-7.0356,11.398-6.3224,11.398,.8012Z" style="fill:#150071;"/><path d="M402.542,393.1886c2.3883,8.4672,.0066,17.5529-6.2142,23.7737l-73.5924,73.5924c-4.7647,4.7641-12.3785-1.1132-8.9945-6.9013l43.7701-75.2953-155.0867-21.9959c-7.0356-.9795-6.3224-11.3545,.8012-11.3545h175.7713c10.9372,0,20.5359,7.2895,23.4478,17.832,.0322,.1164,.0646,.2327,.0974,.3489Z" style="fill:#150071;"/><path d="M575.7362,528.3132l-75.2953-43.7695-21.9959,155.1308c-.9795,7.035-11.3545,6.2784-11.3545-.8017v-175.8263c0-10.9352,7.2883-20.5268,17.8266-23.4463,.1019-.0282,.2037-.0567,.3054-.0854,8.4688-2.3896,17.5571-.0094,23.7792,6.2128l73.6353,73.6358c4.7647,4.7195-1.1132,12.334-6.9008,8.9499Z" style="fill:#150071;"/><path d="M472.7994,368.1141v38.3511h-10.9987v-38.3511h-10.3539v-9.2859h31.7091v9.2859h-10.3564Z" style="fill:#150071;"/><path d="M499.9202,376.9693h18.9975v-18.1412h10.9987v47.637h-10.9987v-20.2124h-18.9975v20.2124h-10.9987v-47.637h10.9987v18.1412Z" style="fill:#150071;"/><path d="M567.2369,368.1141h-15.9255v9.2137h15.1413v9.2834h-15.1413v10.5705h15.9255v9.2834h-26.9242v-47.637h26.9242v9.2859Z" style="fill:#150071;"/><g><path d="M631.5338,311.2459c8.2802,0,17.4167,1.1402,24.9824,7.852,8.1382,7.1375,9.2785,16.5603,9.2785,23.1252,0,11.992-4.5683,18.7013-8.1358,22.4132-7.5657,7.7101-17.5611,8.4245-24.2704,8.4245h-13.4185v33.4044h-21.985v-95.2193h33.5488Zm-11.5638,43.8256h7.852c2.9974,0,8.2802-.1419,11.8476-3.5675,1.9991-1.9991,3.57-5.2828,3.57-9.4228,0-3.9982-1.4265-7.2819-3.57-9.2785-3.2812-3.1418-7.9939-3.57-12.2758-3.57h-7.4238v25.8388Z" style="fill:#150071;"/><path d="M697.7726,342.7957v35.1172c0,2.8555,.2838,7.2819,3.5675,10.2792,1.429,1.2846,3.9982,2.9974,8.5664,2.9974,3.8538,0,6.8512-1.2846,8.7084-2.9974,2.9974-2.8555,3.4256-7.1375,3.4256-10.2792v-35.1172h20.5585v37.1163c0,7.2819-.7145,14.133-7.1375,20.4141-7.2819,7.1375-17.9893,8.2802-25.555,8.2802-7.852,0-18.415-1.1427-25.6969-8.2802-5.8529-5.711-6.9956-12.1339-6.9956-19.1295v-38.4009h20.5585Z" style="fill:#150071;"/><path d="M758.5866,342.7957h20.5585v9.9929c1.8547-3.57,4.7102-6.8537,7.9939-8.8527,3.4256-2.141,6.9956-2.7111,10.9912-2.7111,2.5717,0,4.4264,.2863,6.7118,.9983l-1.1427,19.2739c-2.7136-1.429-5.711-2.2854-9.2785-2.2854-4.4264,0-7.7101,1.5709-10.2792,4.2845-4.5683,4.8521-4.9965,11.7057-4.9965,17.1304v25.8388h-20.5585v-63.6695Z" style="fill:#150071;"/><path d="M833.9619,439.1576h-20.5585v-96.362h20.5585v7.5657c6.7093-8.7084,14.9894-9.7066,19.844-9.7066,11.4194,0,18.5569,4.9965,22.5551,8.9922,5.711,5.711,9.5647,14.4193,9.5647,24.8405,0,10.9912-3.8538,19.2714-10.1373,25.555-6.2811,6.2811-13.1322,8.564-21.5543,8.564-12.7065,0-18.1312-6.423-20.2722-9.4228v39.9743Zm3.4256-76.0898c-3.2837,3.2812-4.8546,7.8495-4.8546,11.7057,0,3.9957,1.5709,8.1358,4.5683,11.2775,2.9999,2.9974,7.2819,4.8546,11.7082,4.8546,3.8538,0,7.9939-1.5709,10.9912-4.4264,3.2837-3.1418,4.9965-7.9939,4.9965-12.1339,0-4.7127-1.9991-8.8527-4.8546-11.5638-2.9974-2.8555-6.9956-4.4264-11.1331-4.4264-5.711,0-9.4228,2.7136-11.4219,4.7127Z" style="fill:#150071;"/><path d="M919.9002,302.3932v104.072h-20.556v-104.072h20.556Z" style="fill:#150071;"/><path d="M1001.6985,378.1992h-47.5374c0,3.4256,1.2846,7.9939,3.8538,10.8493,3.1418,3.4256,7.4238,3.9982,10.5655,3.9982,2.9974,0,6.1367-.5726,8.2802-1.8572,.2838-.1419,2.7111-1.7128,4.4239-5.2828l19.4158,1.9991c-2.8555,8.9946-8.5664,13.7048-12.2783,15.9902-6.1367,3.7119-12.9903,4.7102-20.1278,4.7102-9.5647,0-17.9868-1.7128-25.4106-9.1365-5.5691-5.5666-9.5647-13.9911-9.5647-24.5542,0-9.1365,3.2837-18.5594,9.7066-25.1243,7.7101-7.7101,17.2748-9.1365,24.4123-9.1365s17.4167,1.2846,25.2687,9.5647c7.5657,7.9939,8.9922,17.9868,8.9922,25.8388v2.141Zm-18.9851-12.2783c-.1444-.5701-1.1427-4.5683-4.1401-7.4238-2.2854-2.141-5.5691-3.5675-9.7091-3.5675-5.2803,0-8.4221,2.141-10.4211,4.1401-1.5709,1.7128-2.9974,3.9982-3.5675,6.8512h27.8378Z" style="fill:#150071;"/><path d="M1083.783,311.2459c8.2802,0,17.4167,1.1402,24.9824,7.852,8.1382,7.1375,9.2785,16.5603,9.2785,23.1252,0,11.992-4.5683,18.7013-8.1358,22.4132-7.5657,7.7101-17.5586,8.4245-24.2704,8.4245h-13.4185v33.4044h-21.985v-95.2193h33.5488Zm-11.5638,43.8256h7.852c2.9974,0,8.2802-.1419,11.8476-3.5675,1.9991-1.9991,3.57-5.2828,3.57-9.4228,0-3.9982-1.4265-7.2819-3.57-9.2785-3.2812-3.1418-7.9939-3.57-12.2758-3.57h-7.4238v25.8388Z" style="fill:#150071;"/><path d="M1129.4633,342.7957h20.5585v9.9929c1.8547-3.57,4.7102-6.8537,7.9939-8.8527,3.4256-2.141,6.9956-2.7111,10.9912-2.7111,2.5717,0,4.4264,.2863,6.7118,.9983l-1.1427,19.2739c-2.7136-1.429-5.711-2.2854-9.2785-2.2854-4.4264,0-7.7101,1.5709-10.2792,4.2845-4.5683,4.8521-4.9965,11.7057-4.9965,17.1304v25.8388h-20.5585v-63.6695Z" style="fill:#150071;"/><path d="M1244.2402,398.327c-5.711,5.711-15.4176,10.2792-27.8378,10.2792s-22.1294-4.5683-27.8378-10.2792c-6.4255-6.423-9.5647-15.5595-9.5647-23.6978s3.1393-17.2723,9.5647-23.6978c5.7085-5.7085,15.4176-10.2767,27.8378-10.2767s22.1269,4.5683,27.8378,10.2767c6.423,6.4255,9.5647,15.562,9.5647,23.6978s-3.1418,17.2748-9.5647,23.6978Zm-39.4017-35.6898c-2.9974,2.9999-4.7102,6.8537-4.7102,11.992,0,5.8529,2.2829,9.5647,4.7102,11.992,2.5692,2.5692,6.2811,4.5683,11.7057,4.5683,4.5683,0,8.4221-1.5709,11.4219-4.5683,2.9974-2.9974,4.7102-6.8512,4.7102-11.992s-1.7128-8.9922-4.7102-11.992c-2.9999-2.9974-6.8537-4.5683-11.5638-4.5683-4.7127,0-8.5664,1.5709-11.5638,4.5683Z" style="fill:#150071;"/><path d="M1278.3579,327.6619h-11.9908v-11.9933c0-6.6223,5.3685-11.9908,11.9908-11.9908h0c6.6223,0,11.9908,5.3685,11.9908,11.9908v.0025c0,6.6223-5.3685,11.9908-11.9908,11.9908Z" style="fill:#931be0;"/><rect x="1268.0799" y="342.7957" width="20.556" height="96.362" style="fill:#150071;"/><path d="M1371.2905,378.1992h-47.5374c0,3.4256,1.2846,7.9939,3.8538,10.8493,3.1418,3.4256,7.4238,3.9982,10.5655,3.9982,2.9974,0,6.1367-.5726,8.2802-1.8572,.2838-.1419,2.7111-1.7128,4.4239-5.2828l19.4158,1.9991c-2.8555,8.9946-8.5664,13.7048-12.2783,15.9902-6.1367,3.7119-12.9903,4.7102-20.1278,4.7102-9.5647,0-17.9868-1.7128-25.4106-9.1365-5.5691-5.5666-9.5647-13.9911-9.5647-24.5542,0-9.1365,3.2837-18.5594,9.7066-25.1243,7.7101-7.7101,17.2748-9.1365,24.4123-9.1365s17.4167,1.2846,25.2687,9.5647c7.5657,7.9939,8.9922,17.9868,8.9922,25.8388v2.141Zm-18.9851-12.2783c-.1444-.5701-1.1427-4.5683-4.1401-7.4238-2.2854-2.141-5.5691-3.5675-9.7091-3.5675-5.2803,0-8.4221,2.141-10.4211,4.1401-1.5709,1.7128-2.9974,3.9982-3.5675,6.8512h27.8378Z" style="fill:#150071;"/><path d="M1431.9627,362.9235c-4.9965-4.1401-10.1348-4.8546-13.4185-4.8546-6.423,0-10.2792,3.1418-11.7057,4.5683-2.7136,2.7136-4.7102,6.8537-4.7102,11.992,0,4.7127,1.7128,8.7084,4.282,11.4219,3.1393,3.4256,7.852,5.1384,12.4202,5.1384,3.5675,0,8.4221-.9983,13.1322-4.9965v18.5594c-5.4247,2.9974-10.563,3.8538-16.274,3.8538-10.7074,0-18.8432-3.8538-24.6961-9.5647-4.8546-4.7102-9.9929-12.704-9.9929-24.2679,0-10.8493,4.5683-19.4158,10.563-25.1268,7.1375-6.7093,15.562-8.9922,24.2704-8.9922,5.5666,0,10.7049,.9983,16.1296,3.5675v18.7013Z" style="fill:#150071;"/><path d="M1469.7935,359.356v47.1092h-20.556v-47.1092h-7.14v-16.5603h7.14v-20.5585h20.556v20.5585h12.7065v16.5603h-12.7065Z" style="fill:#150071;"/></g></svg>